<?xml version="1.0" encoding="utf-8"?>
<!-- Generator: Adobe Illustrator 17.1.0, SVG Export Plug-In . SVG Version: 6.00 Build 0)  -->
<!DOCTYPE svg PUBLIC "-//W3C//DTD SVG 1.1//EN" "http://www.w3.org/Graphics/SVG/1.1/DTD/svg11.dtd">
<svg version="1.1" id="Layer_2" xmlns="http://www.w3.org/2000/svg" xmlns:xlink="http://www.w3.org/1999/xlink" x="0px" y="0px"
	 viewBox="0 0 343.635 167.084" enable-background="new 0 0 343.635 167.084" xml:space="preserve">
<path fill="#FFFFFF" d="M85.347,92.956c0.092-0.481,20.082-3.265,27.266-11.429c0,0,3.429-3.102,5.225-6.857s0.653-5.714,1.796-9.47
	c1.143-3.755,2.123-7.021,1.469-8.98c-0.653-1.959,3.592,1.469,8.327-2.449s2.776-0.816,4.245-6.041s3.265-8-5.388-16.49
	c0,0-1.959-1.143-0.653-3.429s2.612-2.449-1.306-3.918c0,0-1.796-19.429-18.123-9.143c0,0-17.47-18.45-44.736-14.041
	c0,0-8.164-0.871-12.245-0.681S28.039,5.769,18.732,24.382c0,0-2.123,8,2.286,14.858c0,0,0.611,2.286-2.797,4.572
	c0,0-6.183,6.368-7.489,7.184c-1.306,0.816-4.735,2.123-4.245,5.225c0.49,3.102,6.041,5.061,6.041,5.061s1.469,0.98-0.327,3.755
	l-1.469,1.959c-0.816,0.163-2.286,2.123-0.163,3.429l2.123,2.939c0,0-4.082,0.49-4.082,3.429c0,0,1.469,3.043,1.633,2.991
	s1.143,1.744,0,3.376S6.324,93.282,15.14,95.405c0,0,23.838,0.653,26.287,9.796c0,0-19.919-3.429-26.94-1.959
	s-13.715,7.837-14.205,21.715s-0.195,16.801-0.195,16.801s134.578,0.179,134.817-0.801c0.239-0.98-38.293-18.45-41.068-22.205
	S81.755,111.732,85.347,92.956z"/>
<rect x="0.088" y="139.758" fill="#FFFFFF" width="134.818" height="27.326"/>
<g>
	<g>
		<path fill="#FFFFFF" d="M97.326,134.064c7.211,3.147,15.32,0.558,22.145-2.402c7.698-3.338,14.82-8.268,20.919-13.996
			c8.063-7.573,15.081-16.343,18.669-26.926c2.39-7.05,4.997-17.164,1.508-24.266c-2.003-4.077-7.39-8.136-11.387-4.085
			c-4.287,4.343,0.827,11.63,4.828,13.772c4.387,2.348,11.037,3.013,13.891-1.818c2.944-4.984-0.105-13.251-1.601-18.215
			c-0.925,0.343-1.85,0.685-2.775,1.028c4.77,5.638,5.744,14.487,13.747,16.71c0.801,0.222,1.813-0.026,2.221-0.812
			c3.402-6.543,1.036-13.534,1.694-20.523c-0.931,0.25-1.863,0.499-2.794,0.749c3.582,6.607,10.456,8.324,17.137,5.319
			c5.616-2.527,9.273-9.126,4.525-14.189c-0.411-0.438-1.029-0.517-1.594-0.359c-10.358,2.911-8.151,18.9,0.334,22.775
			c4.147,1.894,9.112-0.465,11.411-4.045c3.553-5.532,3.704-12.262,6.528-18.071c-0.951-0.02-1.903-0.04-2.854-0.06
			c0.265,9.659,10.435,5.901,14.658,0.976c-0.809-0.288-1.618-0.575-2.427-0.863c-3.59,5.248-8.524,17.59,0.503,20.13
			c8.639,2.431,10.554-11.579,11.756-16.94c-0.979,0.073-1.958,0.145-2.936,0.218c-0.867,4.496-2.182,18.344,6.311,16.474
			c7.169-1.579,8.515-13.165,9.702-19.011c-0.972,0.166-1.945,0.331-2.917,0.497c2.392,12.066,3.636,24.548,1.131,36.697
			c-0.963,4.668-2.65,9.825-5.816,13.469c-1.584,1.95-3.522,2.145-5.814,0.586c-0.05-1.205,0.606-2.472,1.016-3.577
			c0.911-2.453,1.914-4.864,2.986-7.25c3.926-8.741,9.069-16.884,13.4-25.422c4.984-9.825,8.469-20.196,10.53-31.013
			c0.245-1.284-1.873-0.973-2.431-0.557c-7.294,5.444-12.893,34.343,0.709,35.188c6.172,0.383,8.884-8.592,10.229-13.035
			c1.854-6.13,3.801-13.795,2.86-20.26c-0.18-1.237-2.513-0.639-2.835,0.22c-3.88,10.337-4.576,21.984-3.639,32.906
			c0.122,1.427,2.653,0.452,2.917-0.497c1.582-5.683,4.832-9.307,9.613-12.603c-0.763-0.009-1.526-0.018-2.288-0.026
			c3.53,3.558,2.33,13.935,9.452,13.172c6.077-0.652,7.453-11.049,8.483-15.587c0.329-1.448-2.612-1.033-2.936,0.218
			c-0.903,3.478-2.855,16.729,5.033,13.984c6.075-2.114,6.328-10.996,7.004-16.332c-0.972,0.166-1.945,0.331-2.917,0.497
			c0.509,5.661,1.341,11.239,0.806,16.931c0.972-0.166,1.945-0.331,2.917-0.497c-0.249-1.924,0.152-3.481,0.913-5.223
			c0.113-0.258,5.326-6.96,5.946-4.005c0.602,2.868,0.671,5.634,1.813,8.381c1.568,3.771,5.615,5.187,9.363,4.981
			c5.88-0.324,15.411-8.895,14.267-15.379c-0.711-4.031-6.031-1.655-8.008-0.209c-4.099,2.999-4.814,7.84-1.008,11.319
			c0.547,0.5,1.561,0.173,2.078-0.173c4.4-2.943,6.713-7.386,8.585-12.215c-0.951-0.02-1.903-0.04-2.854-0.06
			c-3.07,13.472-5.035,26.602-11.984,38.744c-3.037,5.306-6.881,10.274-11.713,14.054c-2.346,1.835-12.476,6.955-14.054,1.878
			c-0.953-3.066,3.333-7.443,5.069-9.461c2.598-3.02,5.57-5.763,8.751-8.157c7.768-5.846,19.281-1.258,27.024-7.398
			c1.544-1.224-0.79-2.232-1.924-1.332c-5.382,4.267-14.28,2.977-20.745,4.42c-4.244,0.947-7.526,3.789-10.657,6.642
			c-3,2.734-15.412,14.134-8.59,18.374c3.327,2.067,8.473,0.694,11.799-0.57c5.868-2.23,10.482-7.491,14.104-12.392
			c9.964-13.484,12.225-29.077,15.858-45.019c0.317-1.39-2.466-1.063-2.854-0.06c-1.703,4.396-3.7,8.52-7.737,11.22
			c0.693-0.058,1.386-0.115,2.078-0.173c-2.21-2.02-2.484-4.51-0.713-6.906c0.496-0.671,3.875-3.85,4.527-2.156
			c1.22,3.171-4.111,8.778-5.966,10.401c-4.297,3.76-10.127,2.869-12.337-2.447c-1.076-2.588-0.99-5.734-1.562-8.46
			c-0.085-0.405-0.576-0.643-0.949-0.67c-6.814-0.49-12.269,6.243-11.417,12.828c0.169,1.302,2.812,0.625,2.917-0.497
			c0.554-5.89-0.318-11.63-0.845-17.489c-0.118-1.313-2.778-0.603-2.917,0.497c-0.506,3.989-0.925,8.008-2.539,11.736
			c-0.622,1.438-1.986,3.664-3.889,1.384c-1.003-1.202-0.847-3.431-0.81-4.847c0.056-2.142,0.537-4.296,1.073-6.361
			c-0.979,0.073-1.958,0.145-2.936,0.218c-0.473,2.082-3.629,16.368-7.321,12.349c-2.853-3.105-2.005-8.385-5.026-11.431
			c-0.627-0.632-1.6-0.501-2.288-0.026c-5.354,3.691-8.863,7.824-10.625,14.153c0.972-0.166,1.945-0.331,2.917-0.497
			c-0.899-10.486-0.209-21.875,3.514-31.792c-0.945,0.073-1.89,0.146-2.835,0.22c0.675,4.636-0.607,9.917-1.554,14.425
			c-0.974,4.64-2.563,13.226-7.208,15.796c-2.838,1.57-5.097-3.785-5.627-5.538c-0.931-3.084-0.842-6.444-0.61-9.619
			c0.372-5.095,1.597-13.097,6.023-16.401c-0.81-0.186-1.62-0.371-2.431-0.557c-2.728,14.32-8.353,27.131-15.356,39.814
			c-2.924,5.296-5.864,10.574-8.41,16.066c-1.508,3.253-5.219,9.309-3.891,13.055c1.11,3.131,6.82,1.233,8.669,0.209
			c3.914-2.169,5.758-7.133,7.084-11.11c4.556-13.663,3.055-28.641,0.305-42.517c-0.271-1.366-2.703-0.555-2.917,0.497
			c-0.979,4.824-1.993,9.702-4.327,14.082c-1.362,2.555-4.244,3.288-5.707,0.169c-0.66-1.408-0.753-3.189-0.82-4.699
			c-0.111-2.484,0.245-5.017,0.715-7.45c0.283-1.468-2.652-1.051-2.936,0.218c-0.762,3.401-3.524,19.556-9.776,13.371
			c-3.707-3.667,0.547-12.505,2.881-15.917c1.066-1.558-1.588-1.841-2.427-0.863c-2.782,3.244-9.108,6.484-9.295-0.331
			c-0.041-1.479-2.369-1.058-2.854-0.06c-2.8,5.76-2.866,19.584-10.736,20.86c-8.595,1.394-12.592-16.836-4.229-19.186
			c-0.531-0.12-1.062-0.239-1.594-0.359c3.488,3.719,1.825,7.84-1.98,10.529c-5.411,3.824-11.498,1.092-14.377-4.218
			c-0.543-1.002-2.698-0.271-2.794,0.749c-0.633,6.733,1.747,13.667-1.53,19.967c0.74-0.271,1.481-0.541,2.221-0.812
			c-7.327-2.035-8.377-10.842-12.766-16.029c-0.713-0.843-3.172-0.288-2.775,1.028c1.267,4.203,2.48,8.51,2.54,12.929
			c0.106,7.854-8.385,6.827-12.744,2.447c-1.689-1.697-2.457-4.165-2.41-6.508c0.092-4.569,4.4-2.014,6.111,0.149
			c3.737,4.725,2.171,12.855,1.078,18.225c-2.909,14.292-12.104,26.179-23.093,35.411c-8.572,7.202-24.298,17.604-35.885,12.548
			C97.775,131.57,95.631,133.325,97.326,134.064L97.326,134.064z"/>
	</g>
</g>
<g>
	<g>
		<path fill="#FFFFFF" d="M292.003,39.132c-0.601-0.22-1.212-0.2-1.837-0.108c1.017-0.15-0.056,0.132,0.171-0.564
			c0.073-0.223,0.176-0.453,0.305-0.649c0.238-0.362,0.49-0.569,0.763-0.706c-0.227,0.114-0.259,0.084-0.135,0.064
			c-0.206,0.033,0.156,0.013,0.163,0.013c0.463,0.044,1.055,0.373,1.245,0.933c0.311,0.912-0.585,1.805-1.178,2.354
			c-0.516,0.478,0.444,0.639,0.725,0.628c0.689-0.027,1.418-0.26,1.928-0.732c0.836-0.774,1.926-2.078,1.31-3.292
			c-0.553-1.09-2.018-1.312-3.109-1.256c-1.57,0.081-3.282,0.723-4.283,1.98c-0.23,0.288-0.409,0.623-0.553,0.961
			c-0.22,0.516-0.134,0.736,0.211,1.164c0.241,0.299,0.673,0.425,1.04,0.443c0.279,0.013,0.516,0.003,0.795-0.036
			c0.604-0.084-0.419-0.146,0.087,0.039c0.618,0.227,1.486-0.04,2.036-0.33C292.005,39.873,292.633,39.363,292.003,39.132
			L292.003,39.132z"/>
	</g>
</g>
<g>
	<g>
		<path fill="#FFFFFF" d="M260.02,40.529c-4.149-1.211-8.21-2.264-11.999,0.374c-0.259,0.181-0.537,0.454-0.086,0.587
			c3.709,1.098,7.981,0.939,11.798,0.798c3.451-0.128,7.192-0.241,10.404-1.657c0.133-0.059,0.883-0.433,0.534-0.669
			c-5.209-3.523-14.213-0.252-19.963-0.126c-0.567,0.012-3.316,1.159-1.884,1.163c6.849,0.022,13.601,0.143,20.288-1.547
			c-0.205-0.25-0.409-0.5-0.614-0.75c-1.772,0.628-3.47,1.402-5.17,2.203c-1.731,0.816,0.993,0.674,1.664,0.358
			c1.484-0.699,2.951-1.381,4.501-1.93c1.65-0.584,0.559-1.046-0.614-0.75c-5.963,1.507-12.074,1.272-18.171,1.253
			c-0.628,0.388-1.256,0.776-1.884,1.163c2.878-0.063,5.731-0.472,8.589-0.782c3.197-0.347,7.679-1.2,10.526,0.725
			c0.178-0.223,0.356-0.446,0.534-0.669c-3.379,1.489-8.391,0.955-11.976,0.856c-1.74-0.048-3.48-0.182-5.193-0.492
			c-2.186-0.395,2.555-0.023,2.988,0.065c1.128,0.231,2.239,0.615,3.343,0.937C258.291,41.83,260.847,40.771,260.02,40.529
			L260.02,40.529z"/>
	</g>
</g>
<g>
	<g>
		<path fill="#FFFFFF" d="M76.814,153.342c4.695-4.549,11.47-6.652,17.613-8.387c8.016-2.264,16.326-3.548,24.595-4.45
			c7.86-0.857,15.792-1.228,23.696-1.029c7.146,0.18,13.732,1.608,20.704,2.992c5.66,1.123,11.274,1.211,16.592-1.212
			c6.114-2.785,9.041-9.654,10.963-15.647c3.556-11.088,7.681-30.692-1.455-40.186c-0.53-0.551-2.264,0.153-2.681,0.588
			c-7.569,7.918-2.933,20.346-2.183,29.911c0.774,9.865,0.666,20.798,4.586,30.048c2.465,5.816,9.507,6.017,10.825-0.532
			c0.845-4.196,0.379-9.027,0.018-13.259c-0.477-5.574-3.562-8.568-8.456-10.836c-0.848,0.367-1.696,0.734-2.543,1.101
			c6.247,1.155,18.085,4.557,22.377-2.367c1.838-2.965,4.76-14.804-2.31-12.433c-7.082,2.375-5.125,13.332,0.842,15.937
			c7.846,3.426,13.592-8.055,16.012-13.164c-0.956,0.16-1.911,0.319-2.867,0.479c-2.716,6.475-0.729,12.297,7.039,10.644
			c6.648-1.415,9.019-9.034,11.03-14.591c-0.931,0.25-1.863,0.499-2.794,0.749c1.646,1.703,2.813,3.629,3.833,5.748
			c0.546,1.135,0.821,2.325,1.041,3.554c0.352,1.967-1.323,6.222-4.676,3.961c-1.416-0.954,4.828-3.427,5.609-3.779
			c2.198-0.99,4.416-1.934,6.603-2.949c8.564-3.974,14.197-9.828,16.913-18.992c-0.956,0.16-1.911,0.319-2.867,0.479
			c-2.128,8.196-12.17,22.342-1.761,28.8c6.248,3.876,13.629-5.023,15.818-9.677c0.26-0.553-2.502-0.296-2.867,0.479
			c-1.411,3-3.372,5.579-6.038,7.573c-5.105,3.817-8.434-3.701-8.611-7.553c-0.32-6.942,4.629-13.566,6.326-20.101
			c0.19-0.732-2.642-0.28-2.867,0.479c-2.156,7.275-6.026,12.724-12.68,16.481c-5.372,3.033-11.286,5.014-16.717,7.955
			c-0.241,0.13-0.801,0.418-0.512,0.751c2.824,3.259,6.749,2.597,9.715-0.117c4.209-3.85-0.616-11.086-3.54-14.111
			c-0.499-0.516-2.566,0.116-2.794,0.749c-1.295,3.579-2.532,7.152-4.768,10.276c-2.767,3.866-7.869,3.463-8.846-0.734
			c-0.504-2.167,0.456-4.591,1.279-6.553c0.258-0.615-2.518-0.258-2.867,0.479c-1.868,3.945-6.203,14.652-12.075,10.782
			c-3.55-2.339-4.675-9.248-2.141-12.526c1.465-1.895,1.835,2.679,1.84,3.197c0.019,2.038-0.567,4.114-1.203,6.03
			c-2.404,7.246-12.492,3.92-18.109,2.881c-0.499-0.092-3.157,0.816-2.543,1.101c3.977,1.843,6.875,4.047,7.957,8.461
			c0.822,3.354,0.634,7.148,0.651,10.594c0.009,1.797-0.128,3.58-0.483,5.343c-0.459,2.279-1.319,2.8-3.101,1.225
			c-2.558-2.261-3.271-6.944-3.922-10.079c-1.661-8.008-1.912-16.264-2.586-24.393c-0.736-8.883-4.998-20.282,2.056-27.66
			c-0.894,0.196-1.787,0.392-2.681,0.588c4.603,4.783,4.979,12.203,4.886,18.472c-0.116,7.809-1.717,15.747-4.221,23.13
			c-1.165,3.436-2.762,6.628-5.067,9.454c-3.666,4.496-9.085,4.833-14.402,4.156c-6.512-0.828-12.653-2.79-19.243-3.251
			c-14.162-0.992-28.659,0.344-42.603,2.833c-10.608,1.893-23.92,4.456-31.976,12.263C73.498,154.156,76.287,153.853,76.814,153.342
			L76.814,153.342z"/>
	</g>
</g>
<g>
	<g>
		<path fill="#FFFFFF" d="M250.316,105.688c7.866,1.725,17.919,3.015,24.971-1.835c1.248-0.858-1.673-0.603-2.251-0.205
			c-5.493,3.778-14.241,2.174-20.362,0.832C251.939,104.318,249.381,105.483,250.316,105.688L250.316,105.688z"/>
	</g>
</g>
<g>
	<g>
		<path fill="#FFFFFF" d="M223.013,101.498c-0.589-0.175-1.414-0.354-1.809-0.788c-0.462-0.507,0.143-1.516,0.43-2.036
			c-0.742,0.265-1.484,0.529-2.226,0.794c0.565,0.112,0.981,0.177,1.12,0.677c0.176,0.633,0.1,1.344,0.184,1.993
			c0.159,1.229,3.067,0.526,2.898-0.776c-0.094-0.729-0.007-1.523-0.257-2.221c-0.338-0.945-1.335-1.331-2.242-1.51
			c-0.784-0.155-1.801,0.024-2.226,0.794c-0.536,0.971-1.145,2.265-0.481,3.324c0.597,0.951,1.899,1.288,2.905,1.587
			c0.686,0.204,1.56-0.021,2.049-0.549C223.802,102.309,223.645,101.686,223.013,101.498L223.013,101.498z"/>
	</g>
</g>
</svg>
